# xmcd CD database file
#
# Track frame offsets:
#	150
#	13143
#	27217
#	38298
#	52953
#	72922
#	84109
#	100009
#	110368
#	124408
#	137454
#	148825
#	166672
#	178831
#
# Disc length: 2569 seconds
#
# Revision: 0
# Processed by: cddbd v1.5.2PL0 Copyright (c) Steve Scherf et al.
# Submitted via: CDex 1.51
#
DISCID=ac0a070e
DTITLE=Billy Joe Royal - The Sound of Billy Joe Royal
DYEAR=2010
DGENRE=Country
TTITLE0=On Broadway
TTITLE1=Stand By Me
TTITLE2=Hush
TTITLE3=If I Could
TTITLE4=To Love Somebody
TTITLE5=Rose Garden
TTITLE6=Tulsa
TTITLE7=Campfire Girls
TTITLE8=I've Got To Be Somebody
TTITLE9=Raindrops Keep Falling On My Head
TTITLE10=Lavender Blue
TTITLE11=Drift Away
TTITLE12=Nobody But You
TTITLE13=Spanish Harlem
EXTD=YEAR: 2010
EXTT0=
EXTT1=
EXTT2=
EXTT3=
EXTT4=
EXTT5=
EXTT6=
EXTT7=
EXTT8=
EXTT9=
EXTT10=
EXTT11=
EXTT12=
EXTT13=
PLAYORDER=
